<svg xmlns="http://www.w3.org/2000/svg" width="1200" height="630" viewBox="0 0 1200 630" role="img" aria-labelledby="title desc">
  <title id="title">Dream and Fortune Archive Open Graph Image</title>
  <desc id="desc">Promotional image for Dream and Fortune Archive.</desc>
  <defs>
    <linearGradient id="bg" x1="0%" y1="0%" x2="100%" y2="100%">
      <stop offset="0%" stop-color="#1F2D3A" />
      <stop offset="55%" stop-color="#6B5B95" />
      <stop offset="100%" stop-color="#D4AF37" />
    </linearGradient>
    <radialGradient id="glow" cx="30%" cy="30%" r="70%">
      <stop offset="0%" stop-color="#FFFFFF" stop-opacity="0.22" />
      <stop offset="100%" stop-color="#FFFFFF" stop-opacity="0" />
    </radialGradient>
  </defs>
  <rect width="1200" height="630" fill="url(#bg)" />
  <circle cx="250" cy="170" r="220" fill="url(#glow)" />
  <circle cx="980" cy="520" r="180" fill="url(#glow)" />
  <g fill="#FFFFFF" opacity="0.92">
    <path d="M930 112l18 42 42 18-42 18-18 42-18-42-42-18 42-18z" />
    <path d="M1020 206l11 26 26 11-26 11-11 26-11-26-26-11 26-11z" />
    <path d="M112 452l14 34 34 14-34 14-14 34-14-34-34-14 34-14z" />
  </g>
  <g>
    <circle cx="265" cy="235" r="116" fill="#F5F3F0" opacity="0.95" />
    <circle cx="318" cy="216" r="108" fill="#6B5B95" />
  </g>
  <text x="120" y="305" fill="#FFFFFF" font-size="34" letter-spacing="6" font-family="Arial, Helvetica, sans-serif">DREAM &amp; FORTUNE ARCHIVE</text>
  <text x="120" y="385" fill="#FFFFFF" font-size="68" font-weight="700" font-family="Georgia, 'Times New Roman', serif">Dream Meanings and</text>
  <text x="120" y="462" fill="#FFFFFF" font-size="68" font-weight="700" font-family="Georgia, 'Times New Roman', serif">Daily Fortune Guidance</text>
  <text x="120" y="530" fill="#F5F3F0" font-size="28" font-family="Arial, Helvetica, sans-serif">Built for searchable, readable, deploy-ready static publishing.</text>
</svg>
